<svg xmlns="http://www.w3.org/2000/svg" viewBox="0 0 218 83"><style type="text/css">
	.st0{fill:#0090B2;}
	.st1{fill:#F9AC0E;}
</style><path class="st0" d="M217.4 36.1H1.2c-0.5 0-1 0.4-1 1s0.4 1 1 1h216.2c0.5 0 1-0.4 1-1S217.9 36.1 217.4 36.1z"/><path class="st0" d="M41.4 27.2l-3.3-2.1c-0.9-0.6-2-0.4-2.7 0.4 -2.6 3.3-5.8 4.8-9.9 4.8 -2.2 0-4.2-0.5-6-1.5 -1.7-1-3.1-2.3-4.1-4 -1-1.8-1.5-3.6-1.5-5.6 0-3 1.1-5.6 3.2-7.7 2.2-2.1 4.9-3.2 8.3-3.2 4.2 0 7.5 1.6 9.9 4.8 0.6 0.8 1.8 1 2.6 0.5l3.3-2c0.9-0.6 1.2-1.8 0.7-2.7 -1.1-1.8-2.4-3.3-4-4.5 -1.5-1.2-3.4-2.1-5.6-2.8 -2.2-0.7-4.4-1.1-6.7-1.1 -3.7 0-7.1 0.8-10.1 2.5 -3 1.7-5.4 4-7.2 6.9 -1.7 2.9-2.6 6.2-2.6 9.6 0 5.1 1.9 9.6 5.6 13.1 3.7 3.6 8.4 5.4 13.9 5.4 3.6 0 6.8-0.7 9.7-2.1 2.9-1.4 5.2-3.4 6.9-6 0.3-0.4 0.4-1 0.3-1.5C42.2 28 41.9 27.5 41.4 27.2z"/><path class="st0" d="M109.9 2.7c-2.2-1.4-4.7-2.1-7.4-2.1 -2.7 0-5.2 0.6-7.5 1.9 -0.9 0.5-1.7 1-2.5 1.7V3.4c0-1.1-0.9-2-2-2h-4.1c-1.1 0-2 0.9-2 2v31.9c0 1.1 0.9 2 2 2h4.1c1.1 0 2-0.9 2-2V23.6c0-5 0.3-7.2 0.5-8.2 0.5-2 1.6-3.7 3.2-5.1 1.6-1.3 3.4-2 5.4-2 1.7 0 3 0.4 4 1.2 1 0.8 1.7 2 2 3.7 0.2 0.7 0.4 2.5 0.4 6.9v15.2c0 1.1 0.9 2 2 2h4.1c1.1 0 2-0.9 2-2V18.9c0-4.7-0.5-8-1.5-10.4C113.7 6.1 112.1 4.2 109.9 2.7z"/><path class="st0" d="M153.9 2.3c-0.4-0.6-1-0.9-1.7-0.9h-4.4c-0.8 0-1.5 0.5-1.8 1.2l-8.8 19.3 -8.9-19.3c-0.3-0.7-1-1.2-1.8-1.2h-4.4c-0.7 0-1.3 0.3-1.7 0.9s-0.4 1.3-0.1 1.9l14.7 31.9c0.3 0.7 1 1.2 1.8 1.2h0.8c0.8 0 1.5-0.5 1.8-1.2l14.6-31.9C154.3 3.6 154.3 2.9 153.9 2.3z"/><path class="st0" d="M208.4 20.5c-1.3-1.7-3.6-3.4-6.9-5.2 -3-1.5-4-2.4-4.3-2.9 -0.5-0.6-0.7-1.1-0.7-1.7 0-0.4 0.1-1 0.8-1.6 0.6-0.5 1.2-0.8 2.1-0.8 1.5 0 3.2 0.9 5 2.6 0.4 0.4 0.9 0.6 1.4 0.6 0.5 0 1-0.2 1.4-0.6l2.6-2.7c0.4-0.4 0.6-0.9 0.6-1.4s-0.2-1-0.6-1.4c-3.3-3.2-6.8-4.9-10.3-4.9 -3.1 0-5.6 1-7.7 3 -2 2-3.1 4.5-3.1 7.5 0 2.3 0.6 4.3 1.9 6.1 1.2 1.7 3.4 3.4 6.6 5 3.2 1.6 4.2 2.5 4.5 2.9 0.5 0.6 0.7 1.2 0.7 1.9 0 0.9-0.3 1.6-1.1 2.3 -0.8 0.7-1.7 1.1-2.9 1.1 -1.8 0-3.5-0.9-5.2-2.9 -0.4-0.4-0.9-0.7-1.5-0.7h0c-0.6 0-1.1 0.2-1.5 0.7l-2.6 2.9c-0.6 0.7-0.7 1.8-0.1 2.5 1.3 1.6 2.9 3 4.9 3.9 1.9 0.9 4 1.4 6.1 1.4 3.3 0 6.1-1.1 8.3-3.3 2.2-2.2 3.4-4.9 3.4-8.1C210.4 24.5 209.7 22.4 208.4 20.5z"/><path class="st0" d="M64.2 2.5c-0.3-0.7-1-1.1-1.8-1.1h-0.8c-0.8 0-1.5 0.4-1.8 1.1L45.1 34.7c-0.3 0.6-0.2 1.3 0.1 1.9 0.4 0.6 1 0.9 1.7 0.9h4.4c0.8 0 1.5-0.5 1.8-1.2L61 19v17.5h2V18.9l8 17.5c0.3 0.7 1 1.1 1.8 1.1h4.4c0.7 0 1.3-0.3 1.7-0.9 0.4-0.6 0.4-1.3 0.1-1.9L64.2 2.5z"/><path class="st0" d="M150 36.6c0.4 0.6 1 0.9 1.7 0.9h4.4c0.8 0 1.5-0.5 1.8-1.2l8.8-19.3 8.9 19.3c0.3 0.7 1 1.2 1.8 1.2h4.4c0.7 0 1.3-0.3 1.7-0.9s0.4-1.3 0.1-1.9L168.8 2.8c-0.3-0.7-1-1.2-1.8-1.2h-0.8c-0.8 0-1.5 0.5-1.8 1.2l-14.6 31.9C149.6 35.3 149.6 36 150 36.6z"/><path class="st1" d="M67.1 59.9c0.1 2.4 0.1 6.5 1.2 9.7 0 0.1-0.4-0.2-0.5-0.3 -0.3 0.1-0.5 0-0.8 0 -0.4-0.1-0.6 0-1 0 0 0 0.2 0 0 0 -0.2 0-0.2 0-0.4 0 0.2 0.1-0.1 0-0.2 0 -0.1 0.2 0.2 0.5-0.1 0.2 0 0-1-0.1-1.3-0.2 0 0-0.1-0.1-0.3-0.2 0.1 0.1 0.2 0.2 0.1 0.2 -1.4-0.3-2.4-0.9-2.6-1.8 0 0 0 0 0 0 -0.8-1.8-0.6-5.9-0.6-7.6 0 0-0.6 0-1.5 0 -0.3 0-1.4-1-0.8-1.1 0 0 0.3-0.1 0.4-0.2 -0.6-0.2 1.2-0.3 1.5-0.3 0 0-0.3-0.1-0.3-0.1 0.1-0.1 0.5-0.1 0.6-0.1 0.2-2.6 0.2-5.4 1-8.1 0.2 0 0.7-0.5 0.8-0.6l0 0.1c0.5-0.1 0.5-0.3 1-0.1 0 0 0 0 0.1 0 0.1 0 0.2-0.1 0.3-0.1 0.2 0 0.1-0.1 0.3-0.2 0.1-0.1 0.8-0.1 0.9-0.1 0.4 0 0.5 0.3 0.6 0.5 0.1 0 0.3 0.3 0.4 0.4 0.1 0.1 0 0.3 0.2 0.4 1.4 0.8 0.6 5.8 0.9 8 1.7 0.1 3.3 0.1 5.1 0.2 0.2-2.8 0-5.5 0.3-8.1h0.1c0-0.1 0-0.1 0-0.2 0.1 0 0.2 0 0.2 0.1 0.1-0.1 0-0.1 0.1-0.1H73c0.1 0 0.1-0.1 0.2-0.2 0.1 0.1 0.1 0 0.1 0.1 0.1 0 0.2-0.2 0.2-0.2 0.1 0.1 0.2 0.2 0.3 0.2 0.1 0 0-0.3 0.1-0.3 0 0 0 0 0.1 0 0 0 0.1 0 0-0.1h0c0.1 0 0.5 0 0.7-0.1 0 0 0.1 0.1 0.2 0.1 0.1 0 0-0.1 0-0.1 0.2 0.1 0.2 0 0.4 0 1.1 1 1.3 4.5 1.1 5.8 -0.1 1.4-0.1 2-0.2 3.3 1.4 0.1 2.2 0.3 2.6 0.4 -0.4 0-0.2 0.6-0.5 0.6 0.1 0.2-0.2 0-0.5 0l0 0.1c0 0-0.4-0.2-0.4-0.1 -0.1 0 0.2 0.1 0.1 0.1h-0.2c0 0 0 0-0.3 0 0 0 0 0 0.1 0.1 -0.2 0-0.6 0-0.9 0 -0.1 2.3 0 5.8 1.4 7.9 -0.2 0.1-0.3-0.1-0.6-0.1l0 0.1c-0.2-0.1-0.5 0-0.6-0.2 0 0-0.1 0-0.1 0.1 -0.1-0.1-0.2-0.2-0.3-0.3 0 0-0.1 0.1-0.1 0.1 -0.2-0.1-0.5 0-0.5 0 0.6 0.8-0.6-0.5-0.3 0.4 -0.4-0.3-0.5-0.3-0.2 0 -0.3-0.1-0.3-0.2-0.4-0.3 0 0.1 0 0.4 0 0.4 -1.3-0.8-1.6-1.8-1.8-2.8 -0.4-1.8-0.4-3.5-0.5-5.5C69.4 59.7 69.1 59.9 67.1 59.9zM61.2 67.6C61.2 67.6 61.2 67.6 61.2 67.6 61.2 67.6 61.2 67.6 61.2 67.6z"/><path class="st1" d="M92.5 58.9L92 59l0.3 0.1 0 0.1c-0.8 0-1.6 0.3-2.2 0.4 0-0.3 0 0.1-0.3 0.1 0 0-0.5 0.4-0.5 0.2 -0.2 0.2-0.6 0.3-0.7 0.3 -0.1 0.1 0 0.1-0.2 0.1 0 0 0 0-0.1 0 -0.6 0.3-1.4 0.4-1.9 0.4 0-0.1-0.1-0.1-0.1-0.1l-0.1 0c0.5 1.4 0.8 2.3 0.6 3.6 0 0.1 0 0.9-0.3 1.2 -0.4 0.7 0 1.1-2.2 1.9 -0.2 0.1-0.7 0.1-1.1 0 -0.5 0-1.5-0.4-1.9-0.9 -1-1.1-1.1-2.6-1-3.7 0.3-2.3 2-5.7 5.7-5.5 0.5 0 2.9 0.3 2.3 0.7 -0.4 0.1-0.6 0-0.9 0 -2.3 0.8-3.6 3-3.8 5.4 -0.1 0.8-0.2 1.8 0.3 2.7 1.3-1.6 1.8-3.4 1.6-5.3l0-0.2c-0.1-0.1 0.1-0.1 0.1-0.2 -0.1-0.1-0.2-0.1-0.2-0.2 -0.1-0.2 0.3-0.2 0.5-0.1 0.9-0.1 1.6-0.4 2.5-0.6 1.7-0.6 2.2-0.6 4.1-0.7l0 0 -0.8 0.2L92.5 58.9 92.5 58.9zM90.1 59.2c0 0 0.3 0.1 0.3-0.1C90.2 59.1 90.1 59.2 90.1 59.2zM90.3 59.4c0.2 0 0.2 0 0.1-0.1C90.5 59.3 90.3 59.3 90.3 59.4zM90.6 59.2c0 0-0.1 0-0.1 0.1C90.7 59.3 90.7 59.3 90.6 59.2zM91.9 59.1c-0.3-0.1-0.8 0-1.2 0.1l0.1 0.1C91.1 59.2 91.5 59.1 91.9 59.1zM91.3 58.9c-0.1 0.1-0.2 0-0.3 0 0 0.1-0.1 0.1-0.1 0.1C91.1 59 91.2 59 91.3 58.9 91.4 58.9 91.5 58.9 91.3 58.9z"/><path class="st1" d="M98 69.5c-0.4-0.1-1 0.3-1 0.3 0 0-0.1-0.1-0.2-0.1 -0.4 0-0.4 0.1-0.6 0.1 -0.4 0-0.9-0.1-1.1-0.2 -0.1-0.1-0.3 0-0.3 0.1 -1.5-1.5-3-3.5-3.8-6.9 -1.2-5.1-0.9-13 1.8-15.4 1.2-1 1.7-1.4 3.6-1.7 1.1-0.6 2.9 0.5 2.8 1.6 0.2 4.5-1.8 9-4 12.6 0.3 2.8 0.9 7.2 3.5 9.8 0 0-0.1 0-0.1 0.1C98.3 69.8 98.1 69.5 98 69.5zM91.9 61.9c0 0 0.1 0.1 0.1 0.1 -0.1 0.1-0.1 0.1-0.1 0.2 0 0.1-0.1 0.1 0 0.2 0.1 0.2 0 0.4 0 0.6l0 0.2c0.1 0.1 0 0.3 0.1 0.4 0 0.1 0 0.1 0 0.2l0.3 1.2c0 0-0.1 0-0.1 0.1 0-0.5-0.1-0.4-0.1-0.6l0-0.3c0-0.1-0.2-0.5-0.3-0.6 0.1 0 0.1-0.2 0.1-0.3l-0.1-0.2c0.1-0.1 0-0.3-0.1-0.5 -0.3 0 0 0.1 0 0.3 0 0-0.1 0-0.1 0l0 0.1 0.1 0.3c0 0.1 0 0.1-0.1 0.3 0-0.1-0.1-0.3-0.1-0.4l0-0.1c0-0.1-0.1-0.1 0-0.2 -0.1 0-0.1 0.1-0.1 0.2l0.1 0.3c0.1 0.3 0.5 1.1 0.5 1.2 0 0 0 0 0 0.1 0 0 0 0.1 0 0.1 0.1 0.2 0.2 0.2 0.1 0.3 -0.2 0 0 0.2 0 0.2 0.1 0 0.1-0.1 0.3 0.7 0.1 0.1 0.2 0.5 0.4 0.4 -0.3-0.5-0.3-0.8-0.5-1.2 0.2 0 0.5 1 0.8 1.6 -0.2 0-0.1-0.1-0.3-0.1 0.1 0.2 0.2 0.4 0.3 0.4l0.1-0.1c0.2 0.3 0.5 0.7 0.7 1l0-0.1c0.1 0.1 0.2 0.2 0.2 0.3L94 68l0 0.1 0.1 0.1c0 0 0-0.1 0.1 0 0.1 0.1 0.5 0.4 0.4 0.3l-0.4-0.6c0 0 0.1 0 0.1-0.1 0 0.1 0.2 0.3 0.2 0.4 0.1-0.1 0.1-0.1 0-0.2 -0.1-0.2-0.7-0.6-0.7-0.8 0 0-0.1-0.2-0.2-0.2 -0.3-0.4-0.9-1.4-1.6-4.1 -0.1-0.4-0.1-0.8 0-1.2L91.9 61.9zM96.8 47.4L96.8 47.4c-1.3 0.9-2.1 7.4-2 9.5l0 0.1C95.8 55 97.4 49.5 96.8 47.4 96.8 47.4 96.8 47.4 96.8 47.4z"/><path class="st1" d="M104.2 65c1.1 0.6 5.2-4.5 5.5-4.9 0.5-0.5 1.6 0.4 1.2 0.9 -1.8 2.3-4.2 5.9-7.9 5 -0.8-0.2-2.7-0.6-3.1-2.8 -0.3-1.6 0.4-4.6 1.6-5.2 0.4-0.2 0.7-0.1 1.2-0.1 1.1 0 2.3 0.8 1.9 1.4C104.6 60.2 103.4 64.5 104.2 65zM105.8 55.5c0.1 0.7-0.7 1.3-1.7 1.3 -1.2 0-2.3-1.5-2.3-1.5 -0.1-0.8 1.9-1.3 2.5-1.3 0.7 0 1.2 0.3 1.4 1.3L105.8 55.5z"/><path class="st1" d="M109.3 65.7c-0.9-5.1 2.8-8.6 7.3-8.8 0.1-1.7 0.1-5.7 0.8-8.3 0-0.4 0.9-0.7 1.4-0.6 0.9-0.5 3-0.8 3.3 0.2 0.3 0.1 0 0.7 0 0.8 -0.6 6.1-0.6 13.3-0.7 19 0 0.5 0.2 1.8 0.2 2.2 0 0.1 0.1 0.3 0.2 0.4 -0.1 0-0.3-0.1-0.4-0.1 -0.1 0-0.1 0.1-0.1 0.1 -0.1 0-0.3-0.2-0.4-0.3 0 0.1 0.1 0.2 0.1 0.2 -0.2 0-0.2-0.2-0.4-0.4 0 0.1 0 0.2 0.1 0.4 -0.2 0-0.1 0-0.3-0.1 0.1 0.1 0 0.1 0 0.1 -0.1-0.1-0.1-0.1-0.1-0.1 0 0.1-0.1 0.1-0.2 0.1 0 0-0.1 0-0.1 0 0 0-0.1 0.1-0.1 0.1 0-0.1-0.1-0.1-0.2-0.2l-0.1 0.1c-0.1 0.1-0.4 0.3-0.4 0.3 -0.1-0.1-0.6-0.3-0.8-0.3 0 0.1 0.1 0.2 0.1 0.2 0 0.1-0.2-0.1-0.4-0.2 0 0.1 0.1 0.2 0.1 0.4l-0.4-0.4c0 0.1 0 0.1 0 0.2l-0.2-0.1c0 0.1 0.1 0.3 0.1 0.4 -0.1-0.1-0.1-0.1-0.3-0.1l0 0.2c-1-1.4-1.2-4.6-1.2-6 -0.5 1-2.2 3.2-4.4 3.2C110.5 68.3 109.5 66.7 109.3 65.7zM112 66.4c0 0.3 0.2 0.5 0.3 0.4 2.7-1.1 3.6-5.3 4.2-7C113.6 61.3 112.4 64.1 112 66.4z"/><path class="st1" d="M138.4 63.4c0-0.1-0.2 0.1-0.2 0.2 -0.1 0.2-0.2 0.3-0.2 0.4 0 0-0.1 0.2-0.1 0.1 0 0.1-0.2 0.2-0.2 0.3 0 0-1 1.1-1.2 1.1 -0.1 0.1-0.3 0.1-0.4 0.3 -0.3 0.3-0.6 0.3-1.1 0.5 -0.7 0.1-0.7 0.1-0.8 0.1 -1 0.3-2.2-0.5-2.7-1.1 -0.7-0.9-1-3-1.2-4.3 -0.1 0.1-0.1 0.3-0.1 0.3 -0.3 1.4-1.9 4-2.4 4 -0.2 0.2-0.3 0.4-0.5 0.5 -0.5 0.2-1.1 0.1-1.7-0.1 -0.6-0.3-0.9-0.7-1-1.2 -0.2-1.7 0.5-3.3 1.4-4.5 0.6-0.8 1.5-1.8 2.9-2.3 0.8-0.3 2.2-0.1 3.1 0.3 0.4 0.1 0.2 0.3 0.3 0.3 -0.1 0.1-0.2 0.1-0.4 0.1 0 0.2 0.2 0.1 0.2 0.3 0 0.2 0 0.2 0 0.4 0 0.1 0 0.1 0 0.4 0.3 1.8 1 5.6 1.6 6.2 0.9 0.4 4.8-4.3 5.5-5.2 0.2-0.3 0.6-0.9 0.9-0.4 0.1 0.1 0.2 0.2 0.3 0.3 0.1 0.3 0.1 0.6 0 0.9l-0.1 0.3c-0.3 0.1 0 0.1-0.3 0.4 -0.1 0.2-0.3 0.3-0.4 0.4l0-0.1c0-0.1 0.1-0.1 0.1-0.2 -0.1 0 0-0.1 0-0.1 0 0.1-0.1 0.1-0.1 0.1 0 0-0.1 0.1-0.1 0.1l-0.3 0.4c-0.3 0.2-0.2 0.3-0.5 0.6l0 0c0.1-0.1 0.1-0.2 0.3-0.2l0 0 0 0C138.8 62.9 138.6 63.4 138.4 63.4zM126.9 64.6c1.2-1.9 2-3.5 3.2-5.5 0-0.2 0.4-0.6 0.5-0.7 -0.8 0.3-1.8 1.6-2.4 2.7 -0.6 1.1-1.2 2.5-1.4 3.5C126.8 64.7 126.9 64.7 126.9 64.6zM128.7 62L128.7 62C128.7 62 128.6 62 128.7 62 128.6 62.1 128.7 62.1 128.7 62zM129.1 61.6C129.1 61.6 129.2 61.6 129.1 61.6 129.1 61.6 129.1 61.6 129.1 61.6l0-0.2 0-0.1c0 0-0.1 0.1-0.1 0.1s0 0-0.1 0c0-0.1-0.1 0.1-0.1 0.2C129 61.7 129 61.6 129.1 61.6l-0.1 0.1 -0.3 0.3c0.1 0 0.1-0.1 0.2 0L129.1 61.6zM128.8 61.7L128.8 61.7c0 0 0.1 0 0.1 0 0 0 0-0.1 0-0.1C128.8 61.6 128.8 61.7 128.8 61.7zM128.9 62.3C128.9 62.3 129 62.2 128.9 62.3 128.9 62.2 128.9 62.2 128.9 62.3 128.9 62.3 128.9 62.4 128.9 62.3 128.9 62.4 128.9 62.4 128.9 62.3zM129.1 61.9C129.1 61.9 129.1 61.9 129.1 61.9 129.1 61.9 129.1 61.9 129.1 61.9 129.1 62 129.1 61.9 129.1 61.9zM129.4 61.8C129.4 61.8 129.4 61.7 129.4 61.8c0-0.2-0.1 0-0.2 0.1h0C129.3 61.9 129.3 61.8 129.4 61.8zM129.4 62c0-0.1 0.2-0.1 0.2-0.2L129.4 62 129.4 62zM129.6 60.6L129.6 60.6C129.5 60.5 129.5 60.5 129.6 60.6c-0.1 0-0.1 0.1-0.1 0.1 0 0 0 0 0 0 0 0.1 0 0.1 0 0.2 0 0 0 0 0 0.1C129.5 60.8 129.4 60.7 129.6 60.6zM129.6 61.1L129.6 61.1c-0.1 0 0-0.1 0.1-0.1 -0.1 0-0.2 0.1-0.2 0.1 0 0 0 0 0 0.1C129.4 61.1 129.5 61.1 129.6 61.1zM129.7 61.8c-0.1 0-0.2 0.1-0.2 0.2C129.6 62.1 129.7 61.9 129.7 61.8zM129.9 60c0 0 0.1-0.1 0.2-0.2 0 0-0.1 0.1-0.1 0.1L129.9 60zM138 62.8c0.1-0.1 0-0.1 0-0.1s-0.1 0.1-0.2 0.2c0.1-0.1 0 0 0 0.1 0-0.1-0.3 0.3-0.4 0.5h0c0 0 0 0 0 0 0.1 0 0.3-0.2 0.3-0.3 0 0 0.1 0 0.1 0 0.1-0.1 0.1-0.1 0.1-0.2C137.7 63 138 62.8 138 62.8zM137.5 63.8C137.5 63.8 137.5 63.8 137.5 63.8L137.5 63.8 137.5 63.8zM137.7 63.6L137.7 63.6c-0.2 0-0.1 0.1-0.2 0.1C137.7 63.7 137.7 63.7 137.7 63.6zM137.7 64c0.1-0.1 0.1-0.1 0.2-0.2 -0.1-0.1 0.1-0.1 0-0.2l0 0c0.1-0.1 0.1-0.1 0.1-0.2 0 0.2-0.3 0.3-0.3 0.4C137.7 63.9 137.5 63.9 137.7 64c-0.1 0-0.1 0-0.1 0.1 0 0 0 0 0 0.1L137.7 64zM137.9 63.4c0.1-0.1 0.2-0.1 0.2-0.2 0.1-0.2 0.1-0.1 0-0.2 -0.1 0.1-0.2 0.2-0.3 0.4 0-0.1 0 0-0.1 0 0 0 0 0 0 0 0.1 0.1 0.1 0.1 0.1 0.1C137.8 63.5 137.9 63.3 137.9 63.4L137.9 63.4zM138 62.4c-0.1 0-0.3 0.2-0.3 0.3C137.9 62.8 138 62.4 138 62.4zM138.2 62.3c0 0 0.4-0.3 0.4-0.3 0 0-0.2-0.1-0.2 0 -0.1 0.1-0.1 0.1-0.1 0.1h-0.2C138.1 62.2 138.2 62.3 138.2 62.3zM138.3 63.3c0.1-0.1 0.2-0.1 0.2-0.2L138.3 63.3C138.3 63.2 138.3 63.3 138.3 63.3 138.3 63.3 138.3 63.3 138.3 63.3zM139.5 62.2c-0.1 0.1 0 0.2-0.2 0.2 0.1 0-0.1 0.1-0.1 0.1 0.1 0.1-0.3 0.2 0.2-0.3C139.3 62.1 139.4 62.2 139.5 62.2zM139.6 61.9C139.6 61.9 139.6 61.9 139.6 61.9 139.6 61.9 139.6 61.9 139.6 61.9z"/><path class="st1" d="M150.5 60.2C151.1 64 149 75 150 80.6c0 0 0 0.1 0 0.1 -0.1 0 0-0.1-0.1-0.1 -0.1 0-0.1 0.1-0.2 0.1 -0.1-0.1-0.1-0.1-0.1-0.1 -0.2 0-0.2 0.5-0.4 0.5 -0.3 0-0.4 0-0.4 0.1 0 0.1 0 0.2 0.1 0.2 -0.1 0-0.2 0-0.2 0 -0.1 0-0.1 0-0.1 0.1 0-0.1-0.1-0.1-0.1-0.1 -0.2 0-0.2 0.3-0.3 0.3 0 0 0 0-0.1 0 -0.1 0-0.1 0.2-0.2 0.3h-0.1c-0.2 0-0.1 0.4-1.4 0.4 -0.3 0-1 0-1.3-1.9 0-0.2-0.1-0.4 0-0.5l0-0.1c0-0.1 0-0.3 0-0.5 0-0.1-0.1-0.2-0.1-0.3 0-0.1 0-0.1 0.1-0.2 0-0.1-0.1-0.2-0.1-0.3 -0.1-0.6 0.2-1.1 0.1-1.7l0-0.2c0-0.2 0-0.4 0.1-0.5 0-1.3 0.3-2.7 0.1-3.8 0 0-0.1 0-0.1 0 0.1-0.4 0.3-0.6 0.2-0.9h0c0 0 0 0.1-0.1 0.1 0.2-2 0.5-5.5 0.6-7.6 -0.9 0.9-2.2 2-3.6 2 -2.1 0-2.9-1-3.1-2.3 -0.3-1.7 0.5-3.9 1.3-4.8 0.2-0.2 0.9-0.4 1.4-0.4 0.5 0 0.8 0.3 0.8 0.6 0.2 1-1.5 2.6-1.1 5.1 0.1 0.4 0.3 0.7 0.7 0.7 1.4 0 3.4-4.4 4.6-5.7 0.4-0.4 1.8-0.7 1.9-0.7 0.6 0 1.2 0.5 1.5 1.1C150.3 59.7 150.4 59.9 150.5 60.2zM145.2 78L145.2 78c0-0.3 0.2-0.4 0.1-0.5l0-0.1c-0.3 0-0.3 0.9-0.2 1.1 0 0 0.1 0 0.1 0C145.2 78.5 145.2 78.2 145.2 78zM145.1 78.6c0 0-0.1 0-0.1 0.1 0 0 0 0.1 0.1 0.1h0.1C145.2 78.8 145.2 78.7 145.1 78.6zM145.3 79.8C145.3 79.8 145.2 79.8 145.3 79.8c-0.1-0.3-0.1-0.7-0.1-1l-0.2 0c0 0.1 0 0.3 0 0.4l0 0.1c0 0.1 0 0.1 0 0.1C145.1 79.7 145.2 79.8 145.3 79.8 145.2 79.9 145.3 79.9 145.3 79.8zM145.3 79.9l-0.1 0c0 0 0 0 0 0 0 0 0.1 0.1 0.1 0.1L145.3 79.9zM145.1 77.3l0 0.1c0.2 0-0.1-1 0.3-1 -0.1-0.2-0.2-0.2-0.2-0.2 -0.1 0-0.2 0.1-0.1 0.4l0 0.1C145.1 76.9 145.1 77.1 145.1 77.3zM145.7 73.8L145.7 73.8c-0.2-0.1-0.2 0.4-0.2 0.4 0 0.1 0 0.1 0.1 0.1 -0.1 0.1-0.1 0.3-0.1 0.4 0 0.1 0.1 0.1 0.1 0.1 0 0.1 0 0.1-0.1 0.1l0-0.1c0-0.2 0-0.4 0-0.7l0-0.1c-0.1 0.1-0.1 0.3-0.1 0.4l0 0.1c-0.1 0.2-0.2 1-0.1 1.4 0 0.1 0 0.1 0.1 0.2 0 0 0.1 0 0.1-0.1l0-0.1c0 0 0 0 0.1-0.1l0 0.1c0 0.1 0 0.1 0 0.1h0.1c0.1 0 0.1-0.1 0.1-0.1l0.1 0.1c0 0 0 0 0-0.1 0-0.1-0.1-0.2-0.1-0.3h0c0 0 0-0.1-0.1-0.1 0-0.1 0.1-0.2 0.1-0.3 0-0.1-0.1-0.1-0.1-0.1 -0.1 0.2 0 0.3-0.1 0.4 0 0 0 0 0 0l0-0.1c0.1-0.1-0.1-0.4 0.1-0.4l0 0.1c0.1-0.1 0.1-0.2 0.1-0.3 0 0 0.1 0 0.1 0 0 0-0.1-0.1-0.1-0.1 0.1-0.1 0.1-0.2 0.1-0.3 0 0-0.1-0.1-0.1-0.1C145.7 74.1 145.8 73.9 145.7 73.8zM145.4 78.2c-0.1 0-0.1 0-0.1 0.1C145.4 78.3 145.4 78.2 145.4 78.2zM145.3 77.7c0 0.1 0 0.1 0.1 0.2 0.1 0 0.1-0.1 0.1-0.1l0-0.1H145.3zM145.5 78.8L145.5 78.8c-0.1-0.1 0-0.1 0-0.2 0 0 0-0.1-0.1-0.1 0-0.1 0.1-0.1 0-0.2 0 0 0 0 0-0.1 0 0.2-0.1 0.4 0 0.6 0 0 0 0.1 0.1 0.1 0 0.1 0 0.3 0 0.3l0 0c0 0 0.1 0 0.1 0l0-0.1c0 0 0 0 0-0.1C145.4 79.1 145.5 78.9 145.5 78.8zM145.5 73.5c-0.1 0.1-0.1 0.2-0.1 0.4l0 0.1C145.5 73.8 145.4 73.7 145.5 73.5zM145.7 80.3l0-0.2c0-0.1 0-0.1 0-0.1 -0.2 0-0.1 0.1-0.2 0.1 0-0.2 0-0.3-0.2-0.4 0 0.1 0 0.2 0 0.3l0.1 0.4c0.1 0.1 0.2 0.1 0.2 0.1C145.7 80.4 145.7 80.4 145.7 80.3zM145.5 76.5C145.5 76.5 145.5 76.6 145.5 76.5L145.5 76.5c0.1 0.1 0.1 0.3 0 0.4 0 0 0-0.1 0-0.1 0 0.2-0.1 0.4 0 0.6l0 0.1c0.1-0.1 0-0.4 0.2-0.4 0 0-0.1-0.1-0.1-0.1 0.1 0 0.1-0.1 0.2-0.1 0 0.1 0 0.2 0 0.3 0 0 0 0.1 0.1 0.1 0.1-0.1 0.1-0.2 0.1-0.3l0-0.1c0.1-0.1 0.1-0.1 0.1-0.1 0-0.1-0.1-0.2-0.1-0.2l-0.1 0.3C145.7 76.6 145.6 76.6 145.5 76.5c0.1 0 0.1 0 0.1-0.1C145.5 76.5 145.5 76.5 145.5 76.5zM145.5 72.6c0 0.1-0.1 0.2-0.1 0.3 0 0 0 0.1 0.1 0.1 0 0-0.1 0.1-0.1 0.1 0 0.1 0.1 0.1 0.1 0.1C145.5 73.1 145.5 72.8 145.5 72.6zM145.6 71.6c0 0-0.2 0.1-0.2 0.2l0.2 0C145.6 71.7 145.6 71.7 145.6 71.6zM145.6 78.7c0-0.1-0.1-0.1-0.1-0.1l0 0c0 0.1-0.1 0.1 0 0.2 0 0 0 0.1 0 0.1C145.6 78.8 145.6 78.7 145.6 78.7zM145.9 72.5c-0.3 0.1-0.3 0.5-0.3 0.8l0 0.1 -0.1 0c0.1 0.1 0 0.1 0.1 0.1s0-0.1 0.1-0.1C145.8 73.1 145.8 72.8 145.9 72.5zM145.8 80.8C145.8 80.8 145.8 80.8 145.8 80.8c0-0.1 0 0 0-0.1h-0.1C145.6 80.6 145.7 80.8 145.8 80.8zM145.7 76.7L145.7 76.7c0 0.1 0 0.1 0 0.1C145.6 76.8 145.6 76.7 145.7 76.7zM146.1 78.4c0-0.1-0.1-0.2-0.3-0.3l0 0c0 0 0 0 0 0 -0.1 0-0.1 0.2-0.1 0.3 0 0.1 0.1 0.2 0.1 0.4 -0.1 0.1-0.1 0.3-0.1 0.5 0 0.1 0.1 0.1 0.1 0.2 0.1-0.2 0.2-0.2 0.1-0.4 0 0 0 0 0-0.1 0 0 0 0 0.1 0 0 0 0 0 0.1 0C146.1 78.8 146.2 78.6 146.1 78.4zM145.9 70.6L145.9 70.6c-0.2-0.1-0.2 0.3-0.2 0.5C145.8 70.9 145.9 70.8 145.9 70.6zM145.9 81.1c0-0.1-0.1-0.1-0.1-0.2 -0.1 0.1 0 0.2-0.1 0.2C145.8 81.1 145.8 81.2 145.9 81.1L145.9 81.1zM145.9 76l-0.1 0.1c0 0.1 0 0.2 0 0.2l0 0.1C145.8 76.2 145.9 76.1 145.9 76zM146 78.8c0 0-0.1-0.1-0.1-0.1 0-0.1 0-0.2 0.1-0.3 0 0.1 0.1 0.2 0.1 0.3C146 78.8 146 78.8 146 78.8zM146 77c0-0.1 0.1-0.1 0-0.2 0-0.1-0.1-0.1-0.1-0.1L146 77zM146.2 79.1c0 0 0-0.1-0.1-0.1l-0.1 0L146.2 79.1C146.2 79.2 146.2 79.2 146.2 79.1zM146.4 80.5l-0.1 0c0 0 0 0.1 0 0.2 0 0 0 0 0 0.1C146.5 80.6 146.4 80.5 146.4 80.5z"/><path class="st1" d="M157.6 59.2c0.3 1.6 1.9 4 2.2 5.2 0.4 2-1.5 2.7-3.1 2.7 -1.7 0-3.6-0.9-4.2-2.2 0-0.1 0.1-0.1 0.1-0.1 0.1 0 0.3 0.1 0.4 0.1 0 0 0.1 0 0.2 0 0.5 0.2 1.1 0.3 1.6 0.3 0.7 0 1.1-0.3 1-0.9 -0.2-1.1-1.8-3.1-2.1-4.6 -0.4-2.1 2.2-3.2 4.3-3.2 0.8 0 2.4 0.2 2.5 0.7 0 0.1-0.2 0.2-0.4 0.2 -0.1 0-0.3 0-0.4-0.1C157.9 57.4 157.4 58.2 157.6 59.2z"/></svg>